<?xml version="1.0" encoding="utf-8"?>
<!-- Generator: Adobe Illustrator 24.1.0, SVG Export Plug-In . SVG Version: 6.00 Build 0)  -->
<svg version="1.1" id="Layer_1" xmlns="http://www.w3.org/2000/svg" xmlns:xlink="http://www.w3.org/1999/xlink" x="0px" y="0px"
	 viewBox="0 0 612 235" style="enable-background:new 0 0 612 235;" xml:space="preserve">
<style type="text/css">
	.st0{fill:#333333;}
	.st1{fill:#EEA023;}
	.st2{display:none;fill:#333333;}
</style>
<g>
	<path class="st0" d="M57.4,163.4c-12,0-23.8-4.1-32.3-16.3v54.3H7.8V72.1h17.3v14.3c8.6-12.1,20.4-16.3,32.3-16.3
		c26.8,0,44.3,21.1,44.3,46.6S84.2,163.4,57.4,163.4z M55.3,148c18.6,0,29.1-14.3,29.1-31.3S73.9,85.5,55.3,85.5
		c-18,0-30.4,13.2-30.6,31.3C24.9,134.8,37.2,148,55.3,148z"/>
	<path class="st0" d="M160.3,70.1c12,0,23.8,4.1,32.3,16.3V72.1H210v89.3h-17.3v-14.3c-8.6,12.2-20.4,16.3-32.3,16.3
		c-26.8,0-44.3-21.1-44.3-46.6S133.5,70.1,160.3,70.1z M162.5,85.5c-18.6,0-29.1,14.3-29.1,31.3s10.5,31.3,29.1,31.3
		c18,0,30.4-13.2,30.5-31.3C192.8,98.7,180.5,85.5,162.5,85.5z"/>
	<path class="st0" d="M281.9,161.4h-19.7l-34.5-89.3H246l26.1,70.2l26.1-70.2h18.2L281.9,161.4z"/>
	<path class="st1" d="M352.1,62.1l-17.3,9.9v89.3h17.3V62.1z"/>
	<path class="st1" d="M398,161.4h-17.3V42.1l17.3-9.9V161.4z"/>
	<path class="st1" d="M443.9,161.4h-17.3V32.2l17.3,9.9V161.4z"/>
	<path class="st1" d="M489.8,72.1l-17.3-9.9v99.3h17.3V72.1z"/>
	<path class="st0" d="M557.9,70.1c25.9,0,47,21.1,47,46.6c0,25.7-21.1,46.6-47,46.6c-25.7,0-46.8-20.7-46.8-46.6
		C511.1,91,532.2,70.1,557.9,70.1z M557.9,148c16.4,0,29.7-13.9,29.7-31.1c0-17.3-13.2-31.4-29.7-31.4c-16.3,0-29.5,14.1-29.5,31.4
		C528.4,134.1,541.6,148,557.9,148z"/>
</g>
<rect x="-0.3" y="-0.8" class="st2" width="613.3" height="235.3"/>
</svg>
